<svg width="242" height="190" viewBox="0 0 742 690" fill="none" xmlns="http://www.w3.org/2000/svg">
    <g id="layer2">
        <path id="path2219" d="M108.407 388.821L101.894 412.403C101.894 412.403 96.7288 424.531 111.327 438.68"
            stroke="#9F9F9F" stroke-width="5.62533" />
        <path id="path2221"
            d="M117.166 432.616C117.166 432.616 123.23 437.557 123.679 451.706L122.332 495.276C122.332 495.276 122.332 503.81 112.45 515.938"
            stroke="#9F9F9F" stroke-width="5.83367" />
        <path id="path3194"
            d="M103.242 519.082L94.9321 530.761C94.9321 530.761 90.6651 535.477 94.9321 548.952L101.445 563.326"
            stroke="#9F9F9F" stroke-width="6.25036" />
        <path id="path3196"
            d="M160.737 620.147L141.647 616.105C141.647 616.105 132.214 613.409 124.129 600.608L114.471 579.721"
            stroke="#9F9F9F" stroke-width="9.89641" />
        <path id="main-track" fill-rule="evenodd" clip-rule="evenodd"
            d="M75.8098 599.498C75.8098 599.498 56.2683 575.096 51.1377 541.612C51.1377 541.612 46.2772 499.758 46.5472 477.885C46.5472 477.885 48.7075 421.449 56.8083 396.337C56.8083 396.337 64.6391 359.883 80.5709 333.42L102.173 298.586C102.173 298.586 106.13 284.499 119.856 289.695C119.856 289.695 135.657 293.726 160.769 293.726L310.905 290.485C310.905 290.485 321.707 289.945 340.879 282.924C340.879 282.924 354.11 279.144 370.042 279.144L436.199 276.174C436.199 276.174 441.329 278.334 456.991 267.803L473.193 254.031C473.193 254.031 482.104 241.61 480.213 236.75C480.213 236.75 480.754 229.729 478.593 224.058L458.071 183.014C458.071 183.014 453.481 174.43 454.744 164.95C454.744 164.95 454.773 157.458 457.792 154.689L549.341 67.9816C549.341 67.9816 560.682 57.4504 566.623 57.4504C566.623 57.4504 576.344 55.0201 575.534 66.6314C575.534 66.6314 575.264 103.625 578.234 117.667L582.284 136.299C582.284 136.299 583.365 147.91 592.546 146.29C592.546 146.29 600.376 146.02 600.646 136.299L599.836 108.216C599.836 108.216 596.866 93.9043 613.878 93.3642L641.421 92.2841C641.421 92.2841 653.032 90.6639 650.602 106.056L642.771 139.539C642.771 139.539 622.789 208.126 580.664 255.111C580.664 255.111 524.228 300.746 473.733 311.818C473.733 311.818 456.991 317.758 416.757 319.108L321.155 321.394C321.155 321.394 317.156 326.277 317.386 330.99L316.431 340.099C316.431 340.099 308.009 341.001 304.715 341.086H281.992L272.291 335.85C272.291 335.85 263.11 327.749 253.119 329.909L192.903 330.18L151.588 331.8C151.588 331.8 132.956 330.99 125.936 348.001C125.936 348.001 115.009 369.231 105.726 423.066L111.772 429.317C111.772 429.317 115.055 431.25 115.655 439.015L116.821 497.608C116.821 497.608 116.755 506.238 104.333 522.44C104.333 522.44 95.676 533.478 101.347 555.62C101.347 555.62 110.004 581.846 133.767 599.938C133.767 599.938 151.318 616.14 162.93 620.46C162.93 620.46 177.241 625.861 175.351 639.362C175.351 639.362 175.351 649.354 161.579 648.813L87.6512 640.713C87.6512 640.713 74.11 640.963 78.1605 627.731C78.1605 627.731 86.3666 611.64 75.8098 599.498Z"
            stroke="#5D6673" stroke-width="10.4173" />
        <path id="main-track-hover" fill-rule="evenodd" clip-rule="evenodd"
            d="M75.2734 601.259C75.2734 601.259 55.7319 576.857 50.6013 543.373C50.6013 543.373 45.7408 501.519 46.0108 479.647C46.0108 479.647 48.1711 423.21 56.2719 398.098C56.2719 398.098 64.1028 361.644 80.0345 335.181L101.637 300.347C101.637 300.347 105.593 286.26 119.319 291.456C119.319 291.456 135.12 295.487 160.233 295.487L310.369 292.247C310.369 292.247 321.17 291.706 340.342 284.686C340.342 284.686 353.574 280.905 369.505 280.905L435.662 277.935C435.662 277.935 440.793 280.095 456.455 269.564L472.656 255.793C472.656 255.793 481.567 243.371 479.677 238.511C479.677 238.511 480.217 231.49 478.057 225.819L457.535 184.775C457.535 184.775 452.944 176.191 454.208 166.712C454.208 166.712 454.236 159.219 457.255 156.451L548.805 69.7428C548.805 69.7428 560.146 59.2116 566.086 59.2116C566.086 59.2116 575.807 56.7814 574.997 68.3926C574.997 68.3926 574.727 105.387 577.698 119.428L581.748 138.06C581.748 138.06 582.828 149.671 592.009 148.051C592.009 148.051 599.84 147.781 600.11 138.06L599.3 109.977C599.3 109.977 596.33 95.6655 613.341 95.1255L640.884 94.0454C640.884 94.0454 652.496 92.4252 650.065 107.817L642.234 141.3C642.234 141.3 622.252 209.888 580.128 256.873C580.128 256.873 523.692 302.508 473.196 313.579C473.196 313.579 456.455 319.519 416.22 320.87L320.619 323.155C320.619 323.155 316.619 328.038 316.85 332.751L315.895 341.861C315.895 341.861 307.473 342.762 304.178 342.847H281.456L271.755 337.611C271.755 337.611 262.574 329.51 252.583 331.671L192.366 331.941L151.052 333.561C151.052 333.561 132.42 332.751 125.399 349.763C125.399 349.763 114.473 370.993 105.19 424.827L111.235 431.078C111.235 431.078 114.519 433.011 115.118 440.777L116.285 499.37C116.285 499.37 116.218 508 103.797 524.201C103.797 524.201 95.1396 535.239 100.81 557.382C100.81 557.382 109.468 583.608 133.23 601.7C133.23 601.7 150.782 617.901 162.393 622.222C162.393 622.222 176.705 627.622 174.815 641.124C174.815 641.124 174.815 651.115 161.043 650.575L87.1148 642.474C87.1148 642.474 73.5737 642.724 77.6241 629.493C77.6241 629.493 85.8302 613.402 75.2734 601.259Z"
            stroke="#5D6673" stroke-width="10.4173" />
        <path id="path7076"
            d="M123.91 644.387C123.91 644.387 115.338 642.351 105.916 628.29C105.916 628.29 89.3962 603.967 82.8857 585.822C82.8857 585.822 71.4338 556.975 69.4043 538.13C69.4043 538.13 65.0555 512.182 65.7803 493.627L66.6501 455.212C66.6501 455.212 67.3749 453.908 62.4462 445.935L50.4144 428.104"
            stroke="#5D6673" stroke-width="6.25036" />
        <path id="path9016"
            d="M642.747 139.851C642.747 139.851 637.21 178.715 591.937 244.295C591.937 244.295 558.063 289.864 475.394 311.64"
            stroke="#434343" stroke-width="26.0432" />
        <g id="g12355">
            <path id="rect9376" d="M38.2284 468.08L38.2288 472.492L42.8331 472.492L42.8327 468.079L38.2284 468.08Z"
                fill="#434343" />
            <path id="rect10347" d="M56.2604 468.069L56.2607 472.482L60.865 472.482L60.8647 468.069L56.2604 468.069Z"
                fill="#434343" />
            <path id="rect10349" d="M29.1255 467.964L29.1259 472.376L33.7302 472.376L33.7298 467.963L29.1255 467.964Z"
                fill="#434343" />
            <path id="rect10351" d="M42.71 468.115L42.7103 472.528L47.3146 472.527L47.3142 468.115L42.71 468.115Z"
                fill="white" />
            <path id="rect12293" d="M33.7051 468.064L33.7055 472.476L38.3098 472.476L38.3094 468.063L33.7051 468.064Z"
                fill="white" />
            <path id="rect12295" d="M51.8282 468.065L51.8286 472.477L56.4328 472.477L56.4325 468.064L51.8282 468.065Z"
                fill="white" />
            <path id="rect12297" d="M60.8898 468.065L60.8901 472.478L65.4944 472.477L65.4941 468.065L60.8898 468.065Z"
                fill="white" />
            <path id="rect12299" d="M29.0602 463.542L29.0606 467.955L33.6649 467.954L33.6645 463.542L29.0602 463.542Z"
                fill="white" />
            <path id="rect12301" d="M65.4954 468.098L65.4958 472.51L70.1001 472.51L70.0997 468.097L65.4954 468.098Z"
                fill="#434343" />
            <path id="rect12303" d="M47.2695 468.088L47.2699 472.5L51.8742 472.5L51.8738 468.088L47.2695 468.088Z"
                fill="#434343" />
            <path id="rect12321" d="M42.7585 463.771L42.7589 468.184L47.3632 468.183L47.3628 463.771L42.7585 463.771Z"
                fill="#434343" />
            <path id="rect12323" d="M60.7905 463.761L60.7909 468.174L65.3952 468.173L65.3948 463.761L60.7905 463.761Z"
                fill="#434343" />
            <path id="rect12325" d="M33.6556 463.655L33.656 468.067L38.2603 468.067L38.2599 463.655L33.6556 463.655Z"
                fill="#434343" />
            <path id="rect12327" d="M47.24 463.807L47.2404 468.219L51.8447 468.219L51.8443 463.806L47.24 463.807Z"
                fill="white" />
            <path id="rect12329" d="M38.2352 463.756L38.2356 468.168L42.8399 468.168L42.8395 463.755L38.2352 463.756Z"
                fill="white" />
            <path id="rect12331" d="M56.3583 463.757L56.3587 468.169L60.963 468.169L60.9626 463.756L56.3583 463.757Z"
                fill="white" />
            <path id="rect12333" d="M65.4199 463.757L65.4202 468.169L70.0245 468.169L70.0241 463.757L65.4199 463.757Z"
                fill="white" />
            <path id="rect12335" d="M51.7996 463.779L51.7999 468.192L56.4042 468.192L56.4038 463.779L51.7996 463.779Z"
                fill="#434343" />
            <path id="rect12337" d="M38.1767 459.458L38.1771 463.871L42.7814 463.87L42.7811 459.458L38.1767 459.458Z"
                fill="#434343" />
            <path id="rect12339" d="M56.2087 459.448L56.2091 463.861L60.8134 463.86L60.813 459.448L56.2087 459.448Z"
                fill="#434343" />
            <path id="rect12341" d="M29.0738 459.342L29.0742 463.754L33.6785 463.754L33.6781 459.342L29.0738 459.342Z"
                fill="#434343" />
            <path id="rect12343" d="M42.6583 459.494L42.6587 463.906L47.263 463.906L47.2626 459.493L42.6583 459.494Z"
                fill="white" />
            <path id="rect12345" d="M33.6535 459.443L33.6539 463.855L38.2582 463.855L38.2578 459.442L33.6535 459.443Z"
                fill="white" />
            <path id="rect12347" d="M51.7765 459.443L51.7769 463.856L56.3812 463.856L56.3808 459.443L51.7765 459.443Z"
                fill="white" />
            <path id="rect12349" d="M60.8381 459.444L60.8384 463.856L65.4427 463.856L65.4424 459.444L60.8381 459.444Z"
                fill="white" />
            <path id="rect12351" d="M47.2178 459.466L47.2182 463.879L51.8225 463.879L51.8221 459.466L47.2178 459.466Z"
                fill="#434343" />
            <path id="rect12353" d="M65.4374 459.344L65.4377 463.757L70.042 463.756L70.0417 459.344L65.4374 459.344Z"
                fill="#434343" />
        </g>
        <g id="path2577">
            <path
                d="M85.1898 610.563C85.1464 611.715 84.6443 612.803 83.794 613.587C82.9437 614.372 81.8147 614.788 80.6555 614.745C79.4963 614.702 78.4017 614.203 77.6126 613.358C76.8235 612.513 76.4045 611.391 76.4477 610.239C76.4909 609.087 76.9928 607.999 77.843 607.214C78.6932 606.43 79.8221 606.013 80.9813 606.056C82.1406 606.099 83.2352 606.598 84.0244 607.443C84.8137 608.288 85.2329 609.41 85.1899 610.562"
                fill="white" />
            <path
                d="M85.1898 610.563C85.1464 611.715 84.6443 612.803 83.794 613.587C82.9437 614.372 81.8147 614.788 80.6555 614.745C79.4963 614.702 78.4017 614.203 77.6126 613.358C76.8235 612.513 76.4045 611.391 76.4477 610.239C76.4909 609.087 76.9928 607.999 77.843 607.214C78.6932 606.43 79.8221 606.013 80.9813 606.056C82.1406 606.099 83.2352 606.598 84.0244 607.443C84.8137 608.288 85.2329 609.41 85.1899 610.562"
                stroke="#5D6673" stroke-width="0.856819" stroke-linecap="square" stroke-linejoin="bevel" />
        </g>
        <g id="path12077">
            <path
                d="M82.6417 636.155C82.5983 637.307 82.0962 638.395 81.2459 639.179C80.3956 639.963 79.2666 640.379 78.1074 640.336C76.9482 640.293 75.8536 639.794 75.0645 638.949C74.2754 638.104 73.8564 636.982 73.8996 635.83C73.9428 634.678 74.4447 633.59 75.2949 632.806C76.1451 632.021 77.274 631.605 78.4332 631.648C79.5925 631.69 80.6871 632.189 81.4763 633.034C82.2656 633.879 82.6848 635.001 82.6418 636.153"
                fill="white" />
            <path
                d="M82.6417 636.155C82.5983 637.307 82.0962 638.395 81.2459 639.179C80.3956 639.963 79.2666 640.379 78.1074 640.336C76.9482 640.293 75.8536 639.794 75.0645 638.949C74.2754 638.104 73.8564 636.982 73.8996 635.83C73.9428 634.678 74.4447 633.59 75.2949 632.806C76.1451 632.021 77.274 631.605 78.4332 631.648C79.5925 631.69 80.6871 632.189 81.4763 633.034C82.2656 633.879 82.6848 635.001 82.6418 636.153"
                stroke="#5D6673" stroke-width="0.856819" stroke-linecap="square" stroke-linejoin="bevel" />
        </g>
        <g id="path12079">
            <path
                d="M179.69 639.035C179.647 640.187 179.144 641.275 178.294 642.059C177.444 642.843 176.315 643.26 175.156 643.217C173.996 643.174 172.902 642.675 172.113 641.83C171.324 640.985 170.905 639.863 170.948 638.71C170.991 637.558 171.493 636.47 172.343 635.686C173.193 634.902 174.322 634.485 175.481 634.528C176.641 634.571 177.735 635.07 178.525 635.914C179.314 636.759 179.733 637.881 179.69 639.034"
                fill="white" />
            <path
                d="M179.69 639.035C179.647 640.187 179.144 641.275 178.294 642.059C177.444 642.843 176.315 643.26 175.156 643.217C173.996 643.174 172.902 642.675 172.113 641.83C171.324 640.985 170.905 639.863 170.948 638.71C170.991 637.558 171.493 636.47 172.343 635.686C173.193 634.902 174.322 634.485 175.481 634.528C176.641 634.571 177.735 635.07 178.525 635.914C179.314 636.759 179.733 637.881 179.69 639.034"
                stroke="#5D6673" stroke-width="0.856819" stroke-linecap="square" stroke-linejoin="bevel" />
        </g>
        <g id="path12081">
            <path
                d="M114.659 289.617C114.615 290.77 114.113 291.857 113.263 292.642C112.413 293.426 111.284 293.842 110.124 293.799C108.965 293.756 107.871 293.257 107.082 292.412C106.292 291.567 105.873 290.445 105.917 289.293C105.96 288.141 106.462 287.053 107.312 286.269C108.162 285.484 109.291 285.068 110.45 285.11C111.609 285.153 112.704 285.652 113.493 286.497C114.283 287.342 114.702 288.464 114.659 289.616"
                fill="white" />
            <path
                d="M114.659 289.617C114.615 290.77 114.113 291.857 113.263 292.642C112.413 293.426 111.284 293.842 110.124 293.799C108.965 293.756 107.871 293.257 107.082 292.412C106.292 291.567 105.873 290.445 105.917 289.293C105.96 288.141 106.462 287.053 107.312 286.269C108.162 285.484 109.291 285.068 110.45 285.11C111.609 285.153 112.704 285.652 113.493 286.497C114.283 287.342 114.702 288.464 114.659 289.616"
                stroke="#5D6673" stroke-width="0.856819" stroke-linecap="square" stroke-linejoin="bevel" />
        </g>
        <g id="path12083">
            <path
                d="M321.274 289.949C321.23 291.102 320.728 292.189 319.878 292.974C319.028 293.758 317.899 294.174 316.739 294.131C315.58 294.088 314.486 293.589 313.697 292.744C312.907 291.899 312.488 290.777 312.532 289.625C312.575 288.473 313.077 287.385 313.927 286.601C314.777 285.816 315.906 285.4 317.065 285.442C318.224 285.485 319.319 285.984 320.108 286.829C320.898 287.674 321.317 288.796 321.274 289.948"
                fill="white" />
            <path
                d="M321.274 289.949C321.23 291.102 320.728 292.189 319.878 292.974C319.028 293.758 317.899 294.174 316.739 294.131C315.58 294.088 314.486 293.589 313.697 292.744C312.907 291.899 312.488 290.777 312.532 289.625C312.575 288.473 313.077 287.385 313.927 286.601C314.777 285.816 315.906 285.4 317.065 285.442C318.224 285.485 319.319 285.984 320.108 286.829C320.898 287.674 321.317 288.796 321.274 289.948"
                stroke="#5D6673" stroke-width="0.856819" stroke-linecap="square" stroke-linejoin="bevel" />
        </g>
        <g id="path12085">
            <path
                d="M481.802 247.519C481.759 248.671 481.257 249.759 480.406 250.543C479.556 251.327 478.427 251.744 477.268 251.701C476.108 251.658 475.014 251.159 474.225 250.314C473.436 249.468 473.017 248.346 473.06 247.194C473.103 246.042 473.605 244.954 474.455 244.17C475.305 243.386 476.434 242.969 477.594 243.012C478.753 243.055 479.847 243.553 480.637 244.398C481.426 245.243 481.845 246.365 481.802 247.517"
                fill="white" />
            <path
                d="M481.802 247.519C481.759 248.671 481.257 249.759 480.406 250.543C479.556 251.327 478.427 251.744 477.268 251.701C476.108 251.658 475.014 251.159 474.225 250.314C473.436 249.468 473.017 248.346 473.06 247.194C473.103 246.042 473.605 244.954 474.455 244.17C475.305 243.386 476.434 242.969 477.594 243.012C478.753 243.055 479.847 243.553 480.637 244.398C481.426 245.243 481.845 246.365 481.802 247.517"
                stroke="#5D6673" stroke-width="0.856819" stroke-linecap="square" stroke-linejoin="bevel" />
        </g>
        <g id="path12087">
            <path
                d="M459.312 162.732C459.268 163.884 458.766 164.972 457.916 165.756C457.066 166.541 455.937 166.957 454.777 166.914C453.618 166.871 452.524 166.372 451.734 165.527C450.945 164.682 450.526 163.56 450.57 162.408C450.613 161.256 451.115 160.168 451.965 159.383C452.815 158.599 453.944 158.182 455.103 158.225C456.262 158.268 457.357 158.767 458.146 159.612C458.936 160.457 459.355 161.579 459.312 162.731"
                fill="white" />
            <path
                d="M459.312 162.732C459.268 163.884 458.766 164.972 457.916 165.756C457.066 166.541 455.937 166.957 454.777 166.914C453.618 166.871 452.524 166.372 451.734 165.527C450.945 164.682 450.526 163.56 450.57 162.408C450.613 161.256 451.115 160.168 451.965 159.383C452.815 158.599 453.944 158.182 455.103 158.225C456.262 158.268 457.357 158.767 458.146 159.612C458.936 160.457 459.355 161.579 459.312 162.731"
                stroke="#5D6673" stroke-width="0.856819" stroke-linecap="square" stroke-linejoin="bevel" />
        </g>
        <g id="path12089">
            <path
                d="M571.116 57.3203C571.073 58.4725 570.571 59.5603 569.72 60.3446C568.87 61.1288 567.741 61.5452 566.582 61.5021C565.423 61.4591 564.328 60.9602 563.539 60.1151C562.75 59.27 562.331 58.1479 562.374 56.9958C562.417 55.8436 562.919 54.7558 563.769 53.9714C564.619 53.187 565.748 52.7705 566.908 52.8133C568.067 52.8562 569.161 53.3549 569.951 54.1999C570.74 55.0449 571.159 56.1668 571.116 57.319"
                fill="white" />
            <path
                d="M571.116 57.3203C571.073 58.4725 570.571 59.5603 569.72 60.3446C568.87 61.1288 567.741 61.5452 566.582 61.5021C565.423 61.4591 564.328 60.9602 563.539 60.1151C562.75 59.27 562.331 58.1479 562.374 56.9958C562.417 55.8436 562.919 54.7558 563.769 53.9714C564.619 53.187 565.748 52.7705 566.908 52.8133C568.067 52.8562 569.161 53.3549 569.951 54.1999C570.74 55.0449 571.159 56.1668 571.116 57.319"
                stroke="#5D6673" stroke-width="0.856819" stroke-linecap="square" stroke-linejoin="bevel" />
        </g>
        <g id="path12091">
            <path
                d="M596.56 146.438C596.517 147.59 596.015 148.678 595.165 149.462C594.314 150.246 593.185 150.663 592.026 150.62C590.867 150.577 589.772 150.078 588.983 149.233C588.194 148.387 587.775 147.265 587.818 146.113C587.862 144.961 588.363 143.873 589.214 143.089C590.064 142.304 591.193 141.888 592.352 141.931C593.511 141.974 594.606 142.472 595.395 143.317C596.184 144.162 596.604 145.284 596.561 146.436"
                fill="white" />
            <path
                d="M596.56 146.438C596.517 147.59 596.015 148.678 595.165 149.462C594.314 150.246 593.185 150.663 592.026 150.62C590.867 150.577 589.772 150.078 588.983 149.233C588.194 148.387 587.775 147.265 587.818 146.113C587.862 144.961 588.363 143.873 589.214 143.089C590.064 142.304 591.193 141.888 592.352 141.931C593.511 141.974 594.606 142.472 595.395 143.317C596.184 144.162 596.604 145.284 596.561 146.436"
                stroke="#5D6673" stroke-width="0.856819" stroke-linecap="square" stroke-linejoin="bevel" />
        </g>
        <g id="path12093">
            <path
                d="M607.841 97.179C607.798 98.3311 607.296 99.419 606.445 100.203C605.595 100.987 604.466 101.404 603.307 101.361C602.148 101.318 601.053 100.819 600.264 99.9737C599.475 99.1286 599.056 98.0066 599.099 96.8544C599.142 95.7023 599.644 94.6144 600.494 93.83C601.345 93.0457 602.473 92.6291 603.633 92.672C604.792 92.7148 605.887 93.2136 606.676 94.0585C607.465 94.9035 607.884 96.0255 607.841 97.1776"
                fill="white" />
            <path
                d="M607.841 97.179C607.798 98.3311 607.296 99.419 606.445 100.203C605.595 100.987 604.466 101.404 603.307 101.361C602.148 101.318 601.053 100.819 600.264 99.9737C599.475 99.1286 599.056 98.0066 599.099 96.8544C599.142 95.7023 599.644 94.6144 600.494 93.83C601.345 93.0457 602.473 92.6291 603.633 92.672C604.792 92.7148 605.887 93.2136 606.676 94.0585C607.465 94.9035 607.884 96.0255 607.841 97.1776"
                stroke="#5D6673" stroke-width="0.856819" stroke-linecap="square" stroke-linejoin="bevel" />
        </g>
        <g id="path12095">
            <path
                d="M654.092 96.427C654.049 97.5792 653.547 98.667 652.696 99.4513C651.846 100.235 650.717 100.652 649.558 100.609C648.399 100.566 647.304 100.067 646.515 99.2218C645.726 98.3767 645.307 97.2546 645.35 96.1025C645.393 94.9503 645.895 93.8625 646.745 93.0781C647.596 92.2937 648.724 91.8771 649.884 91.92C651.043 91.9629 652.137 92.4616 652.927 93.3066C653.716 94.1515 654.135 95.2735 654.092 96.4257"
                fill="white" />
            <path
                d="M654.092 96.427C654.049 97.5792 653.547 98.667 652.696 99.4513C651.846 100.235 650.717 100.652 649.558 100.609C648.399 100.566 647.304 100.067 646.515 99.2218C645.726 98.3767 645.307 97.2546 645.35 96.1025C645.393 94.9503 645.895 93.8625 646.745 93.0781C647.596 92.2937 648.724 91.8771 649.884 91.92C651.043 91.9629 652.137 92.4616 652.927 93.3066C653.716 94.1515 654.135 95.2735 654.092 96.4257"
                stroke="#5D6673" stroke-width="0.856819" stroke-linecap="square" stroke-linejoin="bevel" />
        </g>
        <g id="path12097">
            <path
                d="M580.995 260.35C580.951 261.502 580.449 262.59 579.599 263.374C578.749 264.158 577.62 264.575 576.461 264.532C575.301 264.489 574.207 263.99 573.418 263.145C572.629 262.3 572.21 261.177 572.253 260.025C572.296 258.873 572.798 257.785 573.648 257.001C574.498 256.217 575.627 255.8 576.786 255.843C577.946 255.886 579.04 256.384 579.829 257.229C580.619 258.074 581.038 259.196 580.995 260.349"
                fill="white" />
            <path
                d="M580.995 260.35C580.951 261.502 580.449 262.59 579.599 263.374C578.749 264.158 577.62 264.575 576.461 264.532C575.301 264.489 574.207 263.99 573.418 263.145C572.629 262.3 572.21 261.177 572.253 260.025C572.296 258.873 572.798 257.785 573.648 257.001C574.498 256.217 575.627 255.8 576.786 255.843C577.946 255.886 579.04 256.384 579.829 257.229C580.619 258.074 581.038 259.196 580.995 260.349"
                stroke="#434343" stroke-width="0.856819" stroke-linecap="square" stroke-linejoin="bevel" />
        </g>
        <g id="path12099">
            <path
                d="M324.695 323.044C324.652 324.196 324.15 325.284 323.299 326.068C322.449 326.852 321.32 327.269 320.161 327.226C319.002 327.182 317.907 326.684 317.118 325.838C316.329 324.993 315.91 323.871 315.953 322.719C315.996 321.567 316.498 320.479 317.348 319.695C318.199 318.91 319.327 318.494 320.487 318.537C321.646 318.58 322.741 319.078 323.53 319.923C324.319 320.768 324.738 321.89 324.695 323.042"
                fill="white" />
            <path
                d="M324.695 323.044C324.652 324.196 324.15 325.284 323.299 326.068C322.449 326.852 321.32 327.269 320.161 327.226C319.002 327.182 317.907 326.684 317.118 325.838C316.329 324.993 315.91 323.871 315.953 322.719C315.996 321.567 316.498 320.479 317.348 319.695C318.199 318.91 319.327 318.494 320.487 318.537C321.646 318.58 322.741 319.078 323.53 319.923C324.319 320.768 324.738 321.89 324.695 323.042"
                stroke="#5D6673" stroke-width="0.856819" stroke-linecap="square" stroke-linejoin="bevel" />
        </g>
        <g id="path12101">
            <path
                d="M278.194 336.831C278.15 337.983 277.648 339.071 276.798 339.856C275.947 340.64 274.818 341.056 273.659 341.013C272.5 340.97 271.405 340.471 270.616 339.626C269.827 338.781 269.408 337.659 269.451 336.507C269.495 335.355 269.997 334.267 270.847 333.482C271.697 332.698 272.826 332.281 273.985 332.324C275.144 332.367 276.239 332.866 277.028 333.711C277.817 334.556 278.237 335.678 278.194 336.83"
                fill="white" />
            <path
                d="M278.194 336.831C278.15 337.983 277.648 339.071 276.798 339.856C275.947 340.64 274.818 341.056 273.659 341.013C272.5 340.97 271.405 340.471 270.616 339.626C269.827 338.781 269.408 337.659 269.451 336.507C269.495 335.355 269.997 334.267 270.847 333.482C271.697 332.698 272.826 332.281 273.985 332.324C275.144 332.367 276.239 332.866 277.028 333.711C277.817 334.556 278.237 335.678 278.194 336.83"
                stroke="#5D6673" stroke-width="0.856819" stroke-linecap="square" stroke-linejoin="bevel" />
        </g>
        <g id="path12103">
            <path
                d="M140.82 335.954C140.776 337.106 140.274 338.194 139.424 338.978C138.573 339.762 137.444 340.179 136.285 340.136C135.126 340.093 134.031 339.594 133.242 338.749C132.453 337.904 132.034 336.781 132.077 335.629C132.121 334.477 132.622 333.389 133.473 332.605C134.323 331.821 135.452 331.404 136.611 331.447C137.77 331.49 138.865 331.988 139.654 332.833C140.443 333.678 140.863 334.8 140.82 335.953"
                fill="white" />
            <path
                d="M140.82 335.954C140.776 337.106 140.274 338.194 139.424 338.978C138.573 339.762 137.444 340.179 136.285 340.136C135.126 340.093 134.031 339.594 133.242 338.749C132.453 337.904 132.034 336.781 132.077 335.629C132.121 334.477 132.622 333.389 133.473 332.605C134.323 331.821 135.452 331.404 136.611 331.447C137.77 331.49 138.865 331.988 139.654 332.833C140.443 333.678 140.863 334.8 140.82 335.953"
                stroke="#5D6673" stroke-width="0.856819" stroke-linecap="square" stroke-linejoin="bevel" />
        </g>
        <g id="path12105">
            <path
                d="M110.612 421.938C110.569 423.09 110.067 424.178 109.216 424.962C108.366 425.747 107.237 426.163 106.078 426.12C104.919 426.077 103.824 425.578 103.035 424.733C102.246 423.888 101.827 422.766 101.87 421.614C101.913 420.462 102.415 419.374 103.265 418.589C104.116 417.805 105.245 417.388 106.404 417.431C107.563 417.474 108.658 417.973 109.447 418.818C110.236 419.663 110.655 420.785 110.612 421.937"
                fill="white" />
            <path
                d="M110.612 421.938C110.569 423.09 110.067 424.178 109.216 424.962C108.366 425.747 107.237 426.163 106.078 426.12C104.919 426.077 103.824 425.578 103.035 424.733C102.246 423.888 101.827 422.766 101.87 421.614C101.913 420.462 102.415 419.374 103.265 418.589C104.116 417.805 105.245 417.388 106.404 417.431C107.563 417.474 108.658 417.973 109.447 418.818C110.236 419.663 110.655 420.785 110.612 421.937"
                stroke="#5D6673" stroke-width="0.856819" stroke-linecap="square" stroke-linejoin="bevel" />
        </g>
        <g id="path12107">
            <path
                d="M120.89 489.998C120.847 491.15 120.345 492.238 119.494 493.023C118.644 493.807 117.515 494.223 116.356 494.18C115.197 494.137 114.102 493.638 113.313 492.793C112.524 491.948 112.105 490.826 112.148 489.674C112.191 488.522 112.693 487.434 113.543 486.649C114.394 485.865 115.522 485.448 116.682 485.491C117.841 485.534 118.936 486.033 119.725 486.878C120.514 487.723 120.933 488.845 120.89 489.997"
                fill="white" />
            <path
                d="M120.89 489.998C120.847 491.15 120.345 492.238 119.494 493.023C118.644 493.807 117.515 494.223 116.356 494.18C115.197 494.137 114.102 493.638 113.313 492.793C112.524 491.948 112.105 490.826 112.148 489.674C112.191 488.522 112.693 487.434 113.543 486.649C114.394 485.865 115.522 485.448 116.682 485.491C117.841 485.534 118.936 486.033 119.725 486.878C120.514 487.723 120.933 488.845 120.89 489.997"
                stroke="#5D6673" stroke-width="0.856819" stroke-linecap="square" stroke-linejoin="bevel" />
        </g>
        <g id="path12109">
            <path
                d="M117.757 578.364C117.713 579.516 117.211 580.604 116.361 581.388C115.51 582.173 114.382 582.589 113.222 582.546C112.063 582.503 110.969 582.004 110.179 581.159C109.39 580.314 108.971 579.192 109.015 578.039C109.058 576.887 109.56 575.799 110.41 575.015C111.26 574.231 112.389 573.814 113.548 573.857C114.707 573.9 115.802 574.399 116.591 575.244C117.381 576.089 117.8 577.211 117.757 578.363"
                fill="white" />
            <path
                d="M117.757 578.364C117.713 579.516 117.211 580.604 116.361 581.388C115.51 582.173 114.382 582.589 113.222 582.546C112.063 582.503 110.969 582.004 110.179 581.159C109.39 580.314 108.971 579.192 109.015 578.039C109.058 576.887 109.56 575.799 110.41 575.015C111.26 574.231 112.389 573.814 113.548 573.857C114.707 573.9 115.802 574.399 116.591 575.244C117.381 576.089 117.8 577.211 117.757 578.363"
                stroke="#5D6673" stroke-width="0.856819" stroke-linecap="square" stroke-linejoin="bevel" />
        </g>
        <text id="1" fill="white" xml:space="preserve" style="white-space: pre" font-family="Arial" font-size="22.918"
            letter-spacing="0em">
            <tspan x="91.7795" y="265.092">1</tspan>
        </text>
        <text id="2" fill="white" xml:space="preserve" style="white-space: pre" font-family="Arial" font-size="22.918"
            letter-spacing="0em">
            <tspan x="307.767" y="264.641">2</tspan>
        </text>
        <text id="3" fill="white" xml:space="preserve" style="white-space: pre" font-family="Arial" font-size="22.918"
            letter-spacing="0em">
            <tspan x="445.91" y="240.323">3</tspan>
        </text>
        <text id="4" fill="white" xml:space="preserve" style="white-space: pre" font-family="Arial" font-size="22.918"
            letter-spacing="0em">
            <tspan x="424.861" y="148.977">4</tspan>
        </text>
        <text id="5" fill="white" xml:space="preserve" style="white-space: pre" font-family="Arial" font-size="22.918"
            letter-spacing="0em">
            <tspan x="558.918" y="34.3346">5</tspan>
        </text>
        <text id="6" fill="white" xml:space="preserve" style="white-space: pre" font-family="Arial" font-size="22.918"
            letter-spacing="0em">
            <tspan x="581.805" y="177.382">6</tspan>
        </text>
        <text id="7" fill="white" xml:space="preserve" style="white-space: pre" font-family="Arial" font-size="22.918"
            letter-spacing="0em">
            <tspan x="607.349" y="71.7313">7</tspan>
        </text>
        <text id="8" fill="white" xml:space="preserve" style="white-space: pre" font-family="Arial" font-size="22.918"
            letter-spacing="0em">
            <tspan x="669.472" y="91.9623">8</tspan>
        </text>
        <text id="9" fill="white" xml:space="preserve" style="white-space: pre" font-family="Arial" font-size="22.918"
            letter-spacing="0em">
            <tspan x="597.131" y="289.368">9</tspan>
        </text>
        <text id="10" fill="white" xml:space="preserve" style="white-space: pre" font-family="Arial" font-size="22.918"
            letter-spacing="0em">
            <tspan x="332.902" y="354.761">10</tspan>
        </text>
        <text id="11" fill="white" xml:space="preserve" style="white-space: pre" font-family="Arial" font-size="22.918"
            letter-spacing="0em">
            <tspan x="261.787" y="371.927">11</tspan>
        </text>
        <text id="12" fill="white" xml:space="preserve" style="white-space: pre" font-family="Arial" font-size="22.918"
            letter-spacing="0em">
            <tspan x="141.832" y="367.022">12</tspan>
        </text>
        <text id="13" fill="white" xml:space="preserve" style="white-space: pre" font-family="Arial" font-size="22.918"
            letter-spacing="0em">
            <tspan x="129.57" y="426.897">13</tspan>
        </text>
        <text id="14" fill="white" xml:space="preserve" style="white-space: pre" font-family="Arial" font-size="22.918"
            letter-spacing="0em">
            <tspan x="131.001" y="510.887">14</tspan>
        </text>
        <text id="15" fill="white" xml:space="preserve" style="white-space: pre" font-family="Arial" font-size="22.918"
            letter-spacing="0em">
            <tspan x="122.827" y="568.106">15</tspan>
        </text>
        <text id="16" fill="white" xml:space="preserve" style="white-space: pre" font-family="Arial" font-size="22.918"
            letter-spacing="0em">
            <tspan x="190.264" y="649.438">16</tspan>
        </text>
        <text id="17" fill="white" xml:space="preserve" style="white-space: pre" font-family="Arial" font-size="22.918"
            letter-spacing="0em">
            <tspan x="41.2898" y="655.773">17</tspan>
        </text>
        <text id="18" fill="white" xml:space="preserve" style="white-space: pre" font-family="Arial" font-size="22.918"
            letter-spacing="0em">
            <tspan x="37.2027" y="615.924">18</tspan>
        </text>
    </g>
</svg>