<svg width="400" height="300" viewBox="0 0 400 300" fill="none" xmlns="http://www.w3.org/2000/svg">
<g id="Casco_Alonso_Mclaren 2">
<path id="path2222" fill-rule="evenodd" clip-rule="evenodd" d="M323.5 91.5C309.737 61.1744 260.107 13.4165 190.51 12.2679C154.23 12.6319 118.378 16.213 81.2398 42.2918L35.6934 85.7958C-1.40061 151.75 16.9698 212.517 48.765 265.531C49.9814 271.113 54.36 276.696 61.0196 282.279C95.1441 285.189 372.136 282.058 379.877 281.561C385.101 256.553 386.201 232.091 383.466 208.22C378.968 202.999 380.429 193.733 374.884 191.575L361.88 190.535L323.5 91.5Z" stroke="#616161" stroke-width="3"/>
<g id="path35477">
<path fill-rule="evenodd" clip-rule="evenodd" d="M326.115 89.9545C298.576 105.849 272.128 114.512 231.5 113.468C233.148 113.757 231.386 116.757 231.5 113.468H176.559C155.912 117.049 160.272 138.099 167.08 143.054C190.392 164.845 213.704 179.157 237.016 197.208C247.619 203.929 268.046 208.607 284.809 206.195C315.717 200.802 348.237 196.377 371.817 186.587L326.115 89.9545Z" fill="url(#paint0_linear)"/>
<path d="M231.5 113.468C272.128 114.512 298.576 105.849 326.115 89.9545L371.817 186.587C348.237 196.377 315.717 200.802 284.809 206.195C268.046 208.607 247.619 203.929 237.016 197.208C213.704 179.157 190.392 164.845 167.08 143.054C160.272 138.099 155.912 117.049 176.559 113.468H231.5ZM231.5 113.468C231.386 116.757 233.148 113.757 231.5 113.468Z" stroke="#616161" stroke-width="2"/>
</g>
<path id="path3213" d="M196.908 131.026C196.908 139.56 189.86 146.479 181.166 146.479C172.472 146.479 165.424 139.56 165.424 131.026C165.424 122.491 172.472 115.573 181.166 115.573C189.86 115.573 196.908 122.491 196.908 131.026Z" fill="#CCCCCC" stroke="black" stroke-width="1.5"/>
<path id="path4184" d="M190.264 131.315C190.264 136.34 186.191 140.413 181.166 140.413C176.141 140.413 172.067 136.34 172.067 131.315C172.067 126.29 176.141 122.216 181.166 122.216C186.191 122.216 190.264 126.29 190.264 131.315Z" fill="url(#paint1_radial)" stroke="black" stroke-width="1.5"/>
<path id="path4186" d="M174.089 125.393L187.954 136.947" stroke="black"/>
<path id="path8074" d="M242.821 135.577C242.821 142.585 237.222 148.266 230.316 148.266C223.409 148.266 217.811 142.585 217.811 135.577C217.811 128.569 223.409 122.888 230.316 122.888C237.222 122.888 242.821 128.569 242.821 135.577Z" fill="#CCCCCC" stroke="black" stroke-width="1.5"/>
<path id="path7101" d="M238.407 135.026C238.409 139.292 234.868 142.752 230.5 142.752C226.131 142.752 222.59 139.292 222.592 135.026C222.59 130.759 226.131 127.299 230.5 127.299C234.868 127.299 238.409 130.759 238.407 135.026Z" fill="url(#paint2_radial)" stroke="black" stroke-width="1.5"/>
<path id="path7103" d="M227.373 128.037L233.626 142.014" stroke="black"/>
<path id="path5099" fill-rule="evenodd" clip-rule="evenodd" d="M190.068 12.1945C193.378 9.5453 202.944 9.7294 211.039 7.00687L217.661 13.0775C222.55 14.8634 222.256 15.539 223.291 16.4992C212.574 13.8167 201.373 12.5229 190.068 12.1945Z" fill="#3D3D3D" stroke="#3D3D3D"/>
<path id="path6070" fill-rule="evenodd" clip-rule="evenodd" d="M364.48 199.295L364.943 204.211L378.206 203.654L376.166 196.884L364.48 199.295Z" fill="#333333" stroke="black"/>
<path id="path8023" fill-rule="evenodd" clip-rule="evenodd" d="M39.9984 198.71L172.998 209.727L197.656 233.861C189.227 231.266 181.598 228.031 169.85 228.09L94.8245 223.893C85.4109 224.211 79.518 221.892 72.7892 214.449C64.1811 206.881 51.0866 203.798 39.9984 198.71Z" fill="#C21215" stroke="#616161"/>
<path id="path14815" fill-rule="evenodd" clip-rule="evenodd" d="M22.306 144.66C26.1432 150.791 34.1011 156.225 40.6897 159.605C44.0364 164.175 48.9185 171.255 59.5562 171.942L143.238 181.385C149.986 182.69 157.016 183.005 162.65 188.206L256.752 283.758L378.5 283.642L380.911 269.871L268.655 269.982C266.193 270.048 263.732 269.748 261.27 267.777L165.275 171.561C163.282 169.717 160.798 168.266 157.34 167.594L22.306 144.66Z" fill="#C21215" stroke="#616161"/>
<path id="path4128" fill-rule="evenodd" clip-rule="evenodd" d="M61.1485 282.45C64.1197 290.902 73.7356 292.254 77.9808 292.329C175.969 297.093 273.279 298.47 370.091 297.351C371.044 296.873 373.474 296.085 374.779 294.287C375.331 292.794 374.556 290.777 377.79 290.115C383.291 288.416 379.743 283.849 379.916 281.731C275.807 282.836 169.923 283.678 61.1485 282.45Z" stroke="#616161" stroke-width="2"/>
<path id="path41335" d="M134.488 240.488C140.181 250.4 138.123 262.269 129.891 266.993C121.659 271.717 110.373 267.505 104.688 257.588C98.9945 247.675 101.053 235.807 109.285 231.083C117.517 226.359 128.802 230.571 134.488 240.488Z" stroke="#616161" stroke-width="1.5"/>
<path id="path2170" d="M130.429 248.134C132.696 255.852 129.171 263.683 122.556 265.626C115.941 267.569 108.741 262.888 106.474 255.17C104.207 247.453 107.732 239.621 114.347 237.678C120.962 235.736 128.162 240.417 130.429 248.134Z" stroke="#616161" stroke-width="1.5"/>
<path id="path8081" d="M123.757 250.267C125.242 254.466 123.371 258.957 119.578 260.297C115.785 261.638 111.507 259.318 110.025 255.118C108.54 250.919 110.411 246.428 114.204 245.088C117.997 243.748 122.275 246.067 123.757 250.267Z" fill="#3D3D3D" stroke="#616161" stroke-width="0.5"/>
<path id="path6129" fill-rule="evenodd" clip-rule="evenodd" d="M79.6567 43.1776L77.303 42.295C65.2234 50.326 52.6979 56.7961 39.056 59.359C31.856 69.4949 34.3284 79.5664 35.5255 85.2493L47.588 118.789C49.711 123.539 51.0139 128.683 59.0621 129.675C74.9791 131.375 78.4374 140.983 85.8351 149.975C89.9711 121.22 99.9307 94.9609 109.372 68.4795C110.156 62.7915 105.939 58.9668 101.134 56.1227L79.6567 43.1776Z" fill="#3D3D3D" stroke="black" stroke-width="0.5"/>
<path id="path8031" fill-rule="evenodd" clip-rule="evenodd" d="M79.7172 43.1033L77.3635 42.2206C65.2839 50.2516 52.7584 56.7218 39.1165 59.2847C31.9164 69.4206 34.3888 79.492 35.586 85.175L47.6485 118.715C49.7715 123.465 51.0744 128.608 59.1226 129.6C75.0395 131.301 78.4979 140.909 85.8955 149.901C90.0316 121.146 99.9911 94.8866 109.432 68.4051C110.217 62.7171 106 58.8924 101.194 56.0484L79.7172 43.1033Z" stroke="#616161" stroke-width="1.5"/>
</g>
<defs>
<linearGradient id="paint0_linear" x1="343.365" y1="148.396" x2="311.162" y2="163.588" gradientUnits="userSpaceOnUse">
<stop stop-color="#A7C2BB"/>
<stop offset="0.776042" stop-color="#4B4F4E"/>
</linearGradient>
<radialGradient id="paint1_radial" cx="0" cy="0" r="1" gradientUnits="userSpaceOnUse" gradientTransform="translate(181.166 131.315) scale(14.0912 18.6874)">
<stop stop-color="white"/>
<stop offset="1" stop-color="white" stop-opacity="0"/>
</radialGradient>
<radialGradient id="paint2_radial" cx="0" cy="0" r="1" gradientUnits="userSpaceOnUse" gradientTransform="translate(230.5 135.026) scale(8.65768 8.47378)">
<stop stop-color="white"/>
<stop offset="1" stop-color="white" stop-opacity="0"/>
</radialGradient>
</defs>
</svg>
