<svg width="540" height="540" viewBox="0 0 540 540" fill="none" xmlns="http://www.w3.org/2000/svg">
<g clip-path="url(#clip0)">
<path d="M270 0C198.392 0 129.716 28.4463 79.0812 79.0812C28.4463 129.716 0 198.392 0 270C0 341.608 28.4463 410.284 79.0812 460.919C129.716 511.554 198.392 540 270 540C341.608 540 410.284 511.554 460.919 460.919C511.554 410.284 540 341.608 540 270C540 198.392 511.554 129.716 460.919 79.0812C410.284 28.4463 341.608 0 270 0V0ZM270 154.78C300.558 154.78 329.865 166.919 351.473 188.527C373.081 210.135 385.22 239.442 385.22 270C385.22 300.558 373.081 329.865 351.473 351.473C329.865 373.081 300.558 385.22 270 385.22C239.442 385.22 210.135 373.081 188.527 351.473C166.919 329.865 154.78 300.558 154.78 270C154.78 239.442 166.919 210.135 188.527 188.527C210.135 166.919 239.442 154.78 270 154.78Z" fill="#333333"/>
<path d="M400.87 87.207L390.241 104.219C416.451 123.2 437.796 148.117 452.528 176.931C467.26 205.745 474.961 237.637 475.001 269.999C474.956 310.26 463.056 349.617 440.786 383.159L456.628 395.536C481.612 358.437 494.971 314.733 495.001 270.006C494.964 234.25 486.405 199.019 470.035 167.23C453.665 135.442 429.955 108.013 400.87 87.216V87.207Z" fill="#FF2D2C"/>
<path d="M139.11 87.334C110.044 108.121 86.348 135.532 69.982 167.298C53.6161 199.063 45.0514 234.27 44.997 270.004C45.0668 314.832 58.5255 358.617 83.647 395.744L100.629 385.154C77.4803 351.209 65.0659 311.091 64.996 270.004C65.0457 237.661 72.7472 205.789 87.4714 176.992C102.196 148.195 123.524 123.291 149.715 104.314L139.11 87.334Z" fill="#FF2D2C"/>
<path d="M270 120C230.218 120 192.064 135.804 163.934 163.934C135.804 192.064 120 230.218 120 270C120 309.782 135.804 347.936 163.934 376.066C192.064 404.196 230.218 420 270 420C289.698 420 309.204 416.12 327.403 408.582C345.601 401.044 362.137 389.995 376.066 376.066C389.995 362.137 401.044 345.601 408.582 327.403C416.12 309.204 420 289.698 420 270C420 250.302 416.12 230.796 408.582 212.597C401.044 194.399 389.995 177.863 376.066 163.934C362.137 150.005 345.601 138.956 327.403 131.418C309.204 123.88 289.698 120 270 120ZM270 154.777C300.558 154.777 329.865 166.916 351.473 188.524C373.081 210.132 385.22 239.439 385.22 269.997C385.22 285.128 382.24 300.111 376.449 314.09C370.659 328.069 362.172 340.771 351.473 351.47C340.774 362.169 328.072 370.656 314.093 376.446C300.114 382.237 285.131 385.217 270 385.217C239.442 385.217 210.135 373.078 188.527 351.47C166.919 329.862 154.78 300.555 154.78 269.997C154.78 239.439 166.919 210.132 188.527 188.524C210.135 166.916 239.442 154.777 270 154.777Z" fill="#A8A8A8"/>
<path d="M270 145C236.848 145 205.054 158.17 181.612 181.612C158.17 205.054 145 236.848 145 270C145 303.152 158.17 334.946 181.612 358.388C205.054 381.83 236.848 395 270 395C303.152 395 334.946 381.83 358.388 358.388C381.83 334.946 395 303.152 395 270C395 236.848 381.83 205.054 358.388 181.612C334.946 158.17 303.152 145 270 145ZM261 162.939V225.959C257.693 226.638 254.473 227.687 251.4 229.086L214.379 178.131C228.542 169.543 244.497 164.345 261 162.94L261 162.939ZM279 162.951C295.497 164.361 311.446 169.563 325.602 178.152L288.604 229.074C285.532 227.662 282.31 226.602 279 225.912V162.951L279 162.951ZM340.209 188.67C352.735 199.508 362.587 213.095 368.996 228.369L309.096 247.832C307.433 244.892 305.444 242.149 303.166 239.654L340.209 188.67L340.209 188.67ZM199.829 188.732L236.833 239.664C234.546 242.152 232.546 244.89 230.872 247.826L170.909 228.342C177.368 213.087 187.266 199.532 199.829 188.733L199.829 188.732ZM269.997 240C273.937 240 277.838 240.776 281.478 242.284C285.117 243.791 288.424 246.001 291.21 248.787C293.996 251.573 296.206 254.88 297.713 258.52C299.221 262.159 299.997 266.061 299.997 270C299.997 277.957 296.836 285.587 291.21 291.213C285.584 296.84 277.954 300 269.997 300C262.041 300 254.41 296.84 248.784 291.213C243.158 285.587 239.997 277.957 239.997 270C239.997 262.044 243.158 254.413 248.784 248.787C254.41 243.161 262.041 240 269.997 240ZM165.447 245.492L225.31 264.943C225.112 266.622 225.008 268.31 224.999 270C225.018 271.687 225.131 273.372 225.339 275.047L165.462 294.502C163.537 286.475 162.543 278.254 162.499 270C162.538 261.745 163.526 253.521 165.447 245.492L165.447 245.492ZM374.537 245.496C376.462 253.523 377.456 261.746 377.5 270C377.462 278.256 376.473 286.481 374.553 294.51L314.69 275.059C314.888 273.38 314.992 271.691 315 270.001C314.982 268.313 314.868 266.627 314.66 264.952L374.537 245.497L374.537 245.496ZM230.907 292.166C232.57 295.104 234.557 297.845 236.833 300.338L199.79 351.324C187.266 340.486 177.417 326.901 171.009 311.629L230.907 292.166L230.907 292.166ZM309.128 292.176L369.093 311.66C362.634 326.914 352.737 340.469 340.175 351.267L303.169 300.335C305.455 297.847 307.454 295.11 309.128 292.175V292.176ZM288.607 310.914L325.628 361.869C311.465 370.457 295.509 375.656 279.005 377.06V314.04C282.313 313.361 285.534 312.312 288.607 310.913L288.607 310.914ZM251.392 310.922C254.467 312.335 257.692 313.397 261.005 314.088V377.049C244.505 375.638 228.554 370.435 214.396 361.844L251.392 310.922H251.392Z" fill="#7F7F7F"/>
<path fill-rule="evenodd" clip-rule="evenodd" d="M251.81 89.8289C254.246 88.7254 255.787 86.2715 255.787 83.4236C255.787 79.5426 252.735 76.0081 247.536 76.0081H222.996V97.5671H234.922V90.611H238.822L242.414 97.5671H255.792L251.81 89.8289ZM241.727 85.3889H234.922V80.8255L241.727 80.8483C242.329 80.8483 242.907 81.0875 243.332 81.5132C243.758 81.939 243.997 82.5165 243.997 83.1186C243.997 83.7207 243.758 84.2982 243.332 84.7239C242.907 85.1497 242.329 85.3889 241.727 85.3889ZM263.272 97.5669H289.572V92.7504H275.197V89.5778H289.572V84.3797H275.197V81.2071H289.572V76.0079H263.272V97.5669ZM309.628 76.0079H297.701V97.5669H321.707V92.7504H309.629L309.628 76.0079ZM337.735 76.0079H325.81V97.5669H349.814V92.7504H337.734L337.735 76.0079ZM361.389 56.3349H175.009V97.4699H195.65V71.6289L361.39 71.6329C362.404 71.6485 363.412 71.4622 364.353 71.0849C365.295 70.7075 366.152 70.1466 366.875 69.4349C367.598 68.7231 368.172 67.8746 368.564 66.9389C368.956 66.0032 369.158 64.9989 369.158 63.9844C369.158 62.9699 368.956 61.9656 368.564 61.0298C368.173 60.094 367.599 59.2455 366.876 58.5336C366.153 57.8217 365.296 57.2607 364.354 56.8833C363.413 56.5058 362.405 56.3194 361.391 56.3349H361.389ZM338.493 66.4169H195.643V61.5382L338.493 61.5517C338.817 61.5451 339.138 61.6032 339.439 61.7225C339.74 61.8418 340.014 62.0199 340.245 62.2465C340.476 62.473 340.66 62.7434 340.785 63.0418C340.911 63.3402 340.975 63.6606 340.975 63.9843C340.975 64.3079 340.911 64.6284 340.785 64.9268C340.66 65.2252 340.476 65.4956 340.245 65.7221C340.014 65.9486 339.74 66.1268 339.439 66.2461C339.138 66.3654 338.817 66.4234 338.493 66.4169ZM202.503 97.5669H214.429V76.0079H202.503V97.5669ZM354.783 97.5669H366.71V76.0079H354.783V97.5669Z" fill="#FF2D2C"/>
<path d="M358.083 499.656L348.561 469.979L339.069 499.656H325.534V457H335.846V466.961L334.85 487.352L345.163 457H351.96L362.302 487.381L361.305 466.961V457H371.589V499.656H358.083ZM278.716 475.076H294.888V464.91H275.787V457H305.171V499.656H275.728V491.717H294.888V482.723H278.716V475.076ZM222.172 457H232.397L247.514 483.543V457H257.797V499.656H247.514L232.426 473.113V499.656H222.172V457ZM168.411 499.656V471.736C168.411 468.572 169.085 465.828 170.433 463.504C171.78 461.199 173.714 459.441 176.234 458.23C178.753 457.02 181.732 456.414 185.169 456.414C190.364 456.414 194.456 457.762 197.445 460.457C200.433 463.152 201.956 466.844 202.015 471.531V499.656H191.673V471.326C191.556 466.658 189.388 464.324 185.169 464.324C183.04 464.324 181.429 464.91 180.335 466.082C179.241 467.254 178.695 469.158 178.695 471.795V499.656H168.411Z" fill="#FF2D2C"/>
<circle cx="270" cy="270" r="266" stroke="black" stroke-width="8"/>
</g>
<defs>
<clipPath id="clip0">
<rect width="540" height="540" fill="white"/>
</clipPath>
</defs>
</svg>
